<?xml version="1.0" encoding="utf-8"?>
<!-- Generator: Adobe Illustrator 25.0.0, SVG Export Plug-In . SVG Version: 6.00 Build 0)  -->
<svg version="1.1" id="Layer_1" xmlns="http://www.w3.org/2000/svg" xmlns:xlink="http://www.w3.org/1999/xlink" x="0px" y="0px"
	 viewBox="0 0 351.3 799" style="enable-background:new 0 0 351.3 799;" xml:space="preserve">
<style type="text/css">
	.st0{fill:#FFFFFF;}
	.st1{fill:#C8202E;}
	.st2{fill-rule:evenodd;clip-rule:evenodd;fill:#1C4588;}
</style>
<g>
	<path class="st0" d="M351.2,81c-0.5-43.9-37-80.8-80.9-80.9C207.2,0,144,0,80.9,0.1C37.5,0.3,0,37.3,0,81C0,293.3-0.1,505.7,0,718
		c0.1,42.9,35.2,79,77.7,81.1h195.8c42.6-2.2,77.7-38.2,77.7-81.1C351.3,505.6,351.2,293.3,351.2,81z M267.6,780
		c-62.4,0-124.6,0.1-187,0c-23.8-0.1-46.4-15.7-55.9-37.5c-3.9-8.7-5.5-18.4-5.5-28c0-207.8,0-415.6,0-623.4
		c-0.6-12.1,0.5-24.8,6.2-35.9c10-21.6,32.9-36.1,56.6-36c35.8,0.1,71.4-0.6,107.2,0.4l-0.3,0c-8.5,2.7-17.1,7.7-20.6,16.4
		c-3.3,9.1-3.5,19-4.1,28.6c-3.5,0.4-8.3,0.7-8.3,5.5c0,6.7-0.7,15.8,6,19.6c-1.8,9.5-0.2,20.4-6,28.6c-6.5,5.6-16.1,3.7-24,4.8
		l-2.1,2.4c-8.5,0.7-17.2,1.3-25.6,3.1c-7.7,1.9-14.7,6.5-19.8,12.6c-8.2,9.8-14.3,21.2-20.2,32.6c-6.6,12.6-9.8,26.8-16.5,39.4
		c-9.6,19.7-19.2,39.5-24.2,60.9c-1.1,3.9,0.7,7.6,1.8,11.2c1.7,4.8,2.5,9.7,4.5,14.4c8.8,2.5,17.9,2.3,26.9,2c0,2.5,0,5.1-0.1,7.6
		c-3.9,5.5-10.3,9.4-12.1,16.3c-3.4,12.3-5.6,25.1-6.6,37.9c1.1,32.2,25.7,56.6,32.9,87l16.4,2.5c13.1,25.6,29.9,49.1,46.7,72.3
		c7.1,8.7,13.2,18.3,22.1,25.3c7.9,6.7,14.5,14.6,22.1,21.6c16.4,15.5,33.7,30.3,53.3,41.5c3.1,6.6,6.1,13.3,8.2,20.3
		c-2.1,3.6-4.1,7.8-1.8,11.9c5.9,14.1,16.1,26.6,19.3,41.9c0.1,3.5-3,6.8-1.3,10.3c1.4,2.7,3.4,4.9,5.3,7.2c0,19.7-5.7,39-3.9,58.7
		c0.5,6.9,5.8,11.8,10.5,16.1C267.7,780,267.7,780,267.6,780z M330.2,731.9c-5.3,24.5-27.1,44.1-51.7,47.6
		c6.7-4.7,12.5-11,14.3-19.3c2.9-15.2-3.2-29.8-8-43.9c-2.3-4.6,0.9-9.8-1.3-14.3c-4.4-9.2-5.2-19.5-6.8-29.4
		c-1.8-12.8,3.9-24.7,5-37.2c0.1-11.8-9-20.4-14.6-29.9c-2.6-6.6-2.4-13.9-4-20.7c-4.7-23.7-5.5-49.2-18.4-70.4
		c-9.5-14.9-18-31.2-18.9-49.2c-2-27.4-7-54.5-14.6-80.9l3.8-3.8l-18.1-64.3c-2-7.1-6.1-14.1-13.5-17.1c0.1-3.4,0-6.9,1.4-10.1
		l15.3-39.2c1-2.2,2-4.5,4-6.1c6.9-5.7,14.7-10.1,22.7-14.1c3.8,21.8,7.7,43.5,12.5,65l4.1,11.7c7.7,16.1,16.2,31.8,22.7,48.4
		c-29.3,6.4-49.3,39.1-41.3,68.2c6.3,29.9,40.1,50.1,69.2,41c2.2-0.6,4.3-1.3,6.4-2.1c14.3-5.6,25.8-17.6,31.8-31.8
		c0.2,89.6,0.1,179.1,0.1,268.7C332.2,709.8,333.2,721.1,330.2,731.9z M332.3,389.1c-3.5-6.4-7.2-12.7-9.9-19.4
		c-0.1,0-0.2-0.1-0.3-0.1c2.7,6.8,6.4,13.1,9.9,19.3c-3.5-6.3-7.2-12.6-9.9-19.4c-3.7-2-8-3.5-10.3-7.3c-3-4.6-9.3-4.5-13.9-6.8
		c-3.7-13.6-3.1-28-8.5-41.1c-4.1-12.2-12.5-22.7-14.3-35.6c-1.7-12.3-4.5-24.5-6.7-36.7c0.4-21.4-0.5-44.2-11.5-63.2
		c-7.8-13.6-22-21-34.3-29.6l-0.7-3.6c-6.9-4.8-14.4-8.5-21.9-12.2c0.6-2.8-0.3-6.8,2.8-8.4c7.9-5.5,11.4-14.8,16-22.8
		c6-2,7.9-8.6,11.1-13.4c2.6-3.6,2.6-8.5-0.3-11.9c5.1-10.6,9.6-23.1,5.5-34.8c-1.1-4.2-4.2-7.3-8.2-8.9c-4-6.9-10.8-11-17.9-13.9
		c18.8-0.5,37.7,0,56.6-0.2c16-0.3,32.3,4.7,44.4,15.4c14.4,12.1,22.3,30.9,22.4,49.6C332.3,185.8,332.5,287.4,332.3,389.1z
		 M92.3,624.7c5.1,0,10.3,0,15.4,0c0,38.7,0,77.3,0,116c-7.3,0-14.6,0-21.9,0c-3.6-22.5-7.1-45-10.7-67.5c-1.4-8-2.4-16-3.9-24
		c1,12.4,1.4,24.9,1.8,37.3c0.7,18,0.3,36.1,0.4,54.2c-5.2,0-10.3,0-15.5,0C58,702,58,663.3,58,624.6c8,0,15.9,0,23.9,0
		c4.9,29.5,9.7,58.9,14.6,88.4c0.4,2.1,0.5,4.3,1.2,6.4c-0.1-0.8-0.3-1.5-0.4-2.3c-2-21-3.8-42-4.7-63.1
		C92.1,644.3,92.4,634.5,92.3,624.7z M177.2,624.6c-4.2,38.7-8.5,77.3-12.7,116c6,0,12,0,17.9,0c0.5-7.6,1-14.2,1.5-21.8
		c3.6,0,7.2,0,10.8,0c0.6,7.6,1.1,14.2,1.7,21.8c6.2,0,12.5,0,18.7,0c-4.2-38.7-8.4-77.3-12.5-116
		C194,624.6,185.6,624.6,177.2,624.6z M184.8,705.5c1.7-23,2.7-48.3,4.1-71.4c0.2,1.4,0.4,2.9,0.4,4.3c1.3,21.6,3,45.5,4.4,67.1
		C190.8,705.5,187.8,705.5,184.8,705.5z M162,708.8c-0.2-5.7,0.7-11.5-1.5-17c-1.3-3.4-3.9-6.3-7.2-8.3c6.1-3.3,8.3-9.9,8.6-15.9
		c0.2-6.9,0-13.7,0.1-20.6c-0.1-6-1.5-12.3-6.2-16.9c-4.2-4-10.5-5.6-16.5-5.6c-7.6,0.1-15.2,0.1-22.8,0.1c0,38.7,0,77.3,0,116
		c7.4,0,14.8,0,22.3,0c5.3,0,10.9-1.2,15.1-4.3c3.6-2.6,5.8-6.3,7-10.1C162.6,720.5,161.9,714.7,162,708.8z M144.2,718.8
		c-0.1,2.1-0.4,4.5-2.4,5.9c-2.2,1.5-5.1,1.1-7.7,1.2c0.1-11.9,0.1-23.7,0.1-35.6c2.5,0,5.4-0.2,7.6,1.2c2,1.4,2.4,3.8,2.4,5.8
		C144.2,704.5,144.2,711.6,144.2,718.8z M144.2,670.4c-0.1,2.1-0.3,4.6-2.3,6c-2.2,1.4-5.1,1.1-7.7,1.2c0-12.8,0-25.6,0-38.3
		c2.5,0,5.3-0.3,7.5,1.1c2,1.3,2.4,3.8,2.5,5.8C144.2,654.3,144.2,662.3,144.2,670.4z"/>
	<path class="st1" d="M332.3,389.1c-3.5-6.4-7.2-12.7-9.9-19.4c-3.7-2-8-3.6-10.3-7.3c-3-4.7-9.3-4.5-13.9-6.8
		c-3.6-13.5-3-28-8.5-41.1c-4.1-12.1-12.5-22.6-14.3-35.5c-1.7-12.3-4.5-24.5-6.8-36.7c0.4-21.5-0.5-44.2-11.5-63.2
		c-7.7-13.6-21.9-21-34.3-29.6c-0.2-0.9-0.5-2.7-0.7-3.6c-6.9-4.8-14.4-8.5-21.9-12.2c0.6-2.9-0.4-6.8,2.8-8.4
		c7.9-5.4,11.5-14.7,16-22.8c6.1-1.9,7.9-8.6,11.1-13.4c2.6-3.6,2.6-8.5-0.3-11.9c5.1-10.6,9.6-23.1,5.5-34.8
		c-1.1-4.2-4.3-7.5-8.3-9.1c-4-7-10.8-11.1-18-14c18.8-0.5,37.7,0,56.6-0.2c16-0.3,32.3,4.7,44.4,15.4
		c14.4,12.1,22.3,30.9,22.4,49.6C332.3,185.8,332.5,287.4,332.3,389.1z M332.3,698.7c0-89.6,0.1-179.1-0.1-268.7
		c-6.8,16.2-20.8,29.5-38,33.8c-29.1,9.1-62.9-11.1-69.2-41c-8-29.1,12-61.8,41.3-68.2c-6.5-16.6-15-32.4-22.7-48.4
		c-1.8-3.7-3.1-7.7-4.1-11.7c-4.8-21.5-8.8-43.2-12.5-65c-7.9,4.2-15.8,8.7-22.7,14.4c-2,1.5-3,3.9-4,6.1
		c-5.3,13-10.3,26.1-15.3,39.2c-1.4,3.2-1.3,6.7-1.4,10.1c7.2,2.7,11.3,9.7,13.3,16.8c6.4,21.4,12.3,42.8,18.1,64.3
		c-1.3,1.3-2.5,2.5-3.8,3.8c7.6,26.4,12.7,53.5,14.6,80.9c0.9,18,9.4,34.4,18.9,49.2c12.9,21.2,13.7,46.7,18.4,70.4
		c1.7,6.8,1.4,14.1,4,20.7c5.6,9.5,14.7,18.1,14.6,29.9c-1.1,12.5-6.8,24.4-5,37.2c1.6,9.9,2.4,20.2,6.8,29.4
		c2.2,4.5-1,9.7,1.3,14.3c4.8,14.1,10.9,28.7,8,43.9c-1.8,8.3-7.7,14.7-14.5,19.4c24.7-3.4,46.6-23,51.9-47.6
		C333.2,721.1,332.2,709.8,332.3,698.7z"/>
	<path class="st2" d="M144.2,646.2c0,8.1,0,16.1,0,24.2c-0.1,2.1-0.3,4.6-2.3,6c-2.2,1.4-5.1,1.1-7.7,1.2c0-12.8,0-25.6,0-38.3
		c2.5,0,5.3-0.3,7.5,1.1C143.7,641.7,144.1,644.2,144.2,646.2z M141.8,691.5c-2.2-1.4-5.1-1.2-7.6-1.2c0,11.9,0,23.7-0.1,35.6
		c2.6-0.1,5.5,0.3,7.7-1.2c2-1.4,2.3-3.8,2.4-5.9c0-7.2,0-14.3,0-21.5C144.2,695.3,143.8,693,141.8,691.5z M188.9,634.1
		c-1.4,23.1-2.4,48.4-4.1,71.4c3,0,6,0,8.9,0c-1.4-21.6-3.1-45.5-4.4-67.1C189.3,637,189.1,635.5,188.9,634.1z M268,780
		c-62.5,0-124.9,0.1-187.4,0c-23.8-0.1-46.4-15.7-55.9-37.5c-3.9-8.7-5.5-18.4-5.5-28c0-207.8,0-415.6,0-623.4
		c-0.6-12.1,0.5-24.8,6.2-35.9c10-21.6,32.9-36.1,56.6-36c35.8,0.1,71.5-0.6,107.3,0.4c-8.5,2.7-17.1,7.7-20.6,16.4
		c-3.4,9.1-3.6,19-4.1,28.6c-3.5,0.4-8.4,0.8-8.3,5.5c-0.1,6.7-0.8,15.8,5.9,19.6c-1.8,9.5-0.1,20.4-5.9,28.6
		c-6.5,5.6-16.1,3.7-24,4.8c-0.5,0.6-1.5,1.8-2.1,2.4c-8.6,0.7-17.2,1.4-25.6,3.1c-7.7,1.9-14.7,6.5-19.8,12.5
		c-8.3,9.8-14.4,21.2-20.3,32.6c-6.6,12.7-9.8,26.8-16.5,39.4c-9.6,19.6-19.2,39.5-24.2,60.9c-1.1,3.8,0.6,7.6,1.8,11.2
		c1.7,4.7,2.6,9.7,4.5,14.4c8.7,2.6,17.9,2.3,26.9,2c0,2.5,0,5-0.1,7.6c-3.9,5.5-10.3,9.4-12.1,16.3c-3.4,12.4-5.6,25.2-6.6,38
		c1,32.2,25.7,56.6,32.9,87c5.5,0.9,10.9,2,16.4,2.5c13.1,25.6,29.9,49.1,46.7,72.3c7.1,8.7,13.2,18.3,22.1,25.3
		c7.9,6.7,14.5,14.6,22.1,21.6c16.4,15.4,33.7,30.2,53.3,41.4c3.1,6.6,6.1,13.3,8.2,20.2c-2.1,3.6-4.1,7.8-1.8,11.9
		c6,14.2,16.1,26.6,19.3,42c0.2,3.5-3,6.9-1.3,10.3c1.4,2.7,3.4,4.9,5.3,7.2c0,19.6-5.7,39-3.9,58.7
		C257.9,770.8,263.2,775.7,268,780z M107.7,624.7c-5.1,0-10.3,0-15.4,0c0.1,9.8-0.2,19.6,0.3,29.4c0.9,21.1,2.7,42.1,4.7,63.1
		c0.1,0.8,0.3,1.5,0.4,2.3c-0.7-2.1-0.8-4.3-1.2-6.4c-4.9-29.5-9.7-58.9-14.6-88.4c-8,0-15.9,0-23.9,0c0,38.6,0,77.3-0.1,116
		c5.2,0,10.3,0,15.5,0c-0.1-18.1,0.3-36.2-0.4-54.2c-0.4-12.4-0.8-24.9-1.8-37.3c1.5,8,2.5,16,3.9,24c3.6,22.5,7.1,45,10.7,67.5
		c7.3,0,14.6,0,21.9,0C107.7,702,107.7,663.4,107.7,624.7z M162,708.8c-0.2-5.7,0.7-11.5-1.5-17c-1.3-3.4-3.9-6.3-7.2-8.3
		c6.1-3.3,8.3-9.9,8.6-15.9c0.2-6.9,0-13.7,0.1-20.6c-0.1-6-1.5-12.3-6.2-16.9c-4.2-4-10.5-5.6-16.5-5.6c-7.6,0.1-15.2,0.1-22.8,0.1
		c0,38.7,0,77.3,0,116c7.4,0,14.8,0,22.3,0c5.3,0,10.9-1.2,15.1-4.3c3.6-2.6,5.8-6.3,7-10.1C162.6,720.5,161.9,714.7,162,708.8z
		 M215.1,740.6c-4.2-38.7-8.4-77.3-12.5-116c-8.6,0-17,0-25.4,0c-4.2,38.7-8.5,77.3-12.7,116c6,0,12,0,17.9,0
		c0.5-7.6,1-14.2,1.5-21.8c3.6,0,7.2,0,10.8,0c0.6,7.6,1.1,14.2,1.7,21.8C202.6,740.6,208.9,740.6,215.1,740.6z"/>
</g>
</svg>
